<svg width="24" height="24" viewBox="0 0 24 24" fill="none" xmlns="http://www.w3.org/2000/svg">
<path fill-rule="evenodd" clip-rule="evenodd" d="M23.4219 2.0886C23.521 1.98942 23.5997 1.87168 23.6534 1.74211C23.7071 1.61253 23.7347 1.47365 23.7347 1.33339C23.7347 1.19314 23.7071 1.05426 23.6534 0.924684C23.5997 0.795106 23.521 0.677369 23.4219 0.578195C23.3227 0.47902 23.205 0.400351 23.0754 0.346679C22.9458 0.293006 22.8069 0.265381 22.6667 0.265381C22.5264 0.265381 22.3875 0.293006 22.258 0.346679C22.1284 0.400351 22.0106 0.47902 21.9115 0.578195L12 10.4918L2.08853 0.578195C1.98936 0.47902 1.87162 0.400351 1.74205 0.346679C1.61247 0.293006 1.47359 0.265381 1.33333 0.265381C1.19308 0.265381 1.0542 0.293006 0.924623 0.346679C0.795045 0.400351 0.677308 0.47902 0.578134 0.578195C0.478959 0.677369 0.40029 0.795106 0.346618 0.924684C0.292945 1.05426 0.26532 1.19314 0.26532 1.33339C0.26532 1.47365 0.292945 1.61253 0.346618 1.74211C0.40029 1.87168 0.478959 1.98942 0.578134 2.0886L10.4917 12.0001L0.578134 21.9115C0.377842 22.1118 0.26532 22.3835 0.26532 22.6667C0.26532 22.95 0.377842 23.2216 0.578134 23.4219C0.778425 23.6222 1.05008 23.7347 1.33333 23.7347C1.61659 23.7347 1.88824 23.6222 2.08853 23.4219L12 13.5083L21.9115 23.4219C22.1118 23.6222 22.3834 23.7347 22.6667 23.7347C22.9499 23.7347 23.2216 23.6222 23.4219 23.4219C23.6222 23.2216 23.7347 22.95 23.7347 22.6667C23.7347 22.3835 23.6222 22.1118 23.4219 21.9115L13.5083 12.0001L23.4219 2.0886Z" fill="#FCFCFC"/>
</svg>
